<?xml version="1.0" encoding="UTF-8" standalone="no"?>
<!DOCTYPE svg PUBLIC "-//W3C//DTD SVG 1.1//EN"
 "http://www.w3.org/Graphics/SVG/1.1/DTD/svg11.dtd">
<!-- Generated by graphviz version 10.0.1 (0)
 -->
<!-- Title: deptree Pages: 1 -->
<svg width="1198pt" height="476pt"
 viewBox="0.00 0.00 1197.93 476.00" xmlns="http://www.w3.org/2000/svg" xmlns:xlink="http://www.w3.org/1999/xlink">
<g id="graph0" class="graph" transform="scale(1 1) rotate(0) translate(4 472)">
<title>deptree</title>
<polygon fill="white" stroke="none" points="-4,4 -4,-472 1193.93,-472 1193.93,4 -4,4"/>
<!-- virtual:world -->
<g id="node1" class="node">
<title>virtual:world</title>
<ellipse fill="none" stroke="black" cx="687.07" cy="-450" rx="38.03" ry="18"/>
<text text-anchor="middle" x="687.07" y="-448.4" font-family="Sans" font-size="8.00">virtual:world</text>
</g>
<!-- poppler&#45;glib -->
<g id="node2" class="node">
<title>poppler&#45;glib</title>
<ellipse fill="none" stroke="black" cx="720.07" cy="-378" rx="38.03" ry="18"/>
<text text-anchor="middle" x="720.07" y="-376.4" font-family="Sans" font-size="8.00">poppler&#45;glib</text>
</g>
<!-- virtual:world&#45;&gt;poppler&#45;glib -->
<g id="edge1" class="edge">
<title>virtual:world&#45;&gt;poppler&#45;glib</title>
<path fill="none" stroke="blue" d="M695.06,-432.05C698.75,-424.23 703.22,-414.75 707.36,-405.98"/>
<polygon fill="blue" stroke="blue" points="710.41,-407.7 711.51,-397.16 704.08,-404.71 710.41,-407.7"/>
</g>
<!-- cairo -->
<g id="node3" class="node">
<title>cairo</title>
<ellipse fill="none" stroke="black" cx="453.07" cy="-306" rx="27" ry="18"/>
<text text-anchor="middle" x="453.07" y="-304.4" font-family="Sans" font-size="8.00">cairo</text>
</g>
<!-- virtual:world&#45;&gt;cairo -->
<g id="edge2" class="edge">
<title>virtual:world&#45;&gt;cairo</title>
<path fill="none" stroke="blue" d="M664.21,-435.13C621.46,-409.18 529.49,-353.37 482.31,-324.74"/>
<polygon fill="blue" stroke="blue" points="484.34,-321.88 473.98,-319.68 480.71,-327.86 484.34,-321.88"/>
</g>
<!-- gio&#45;2.0 -->
<g id="node4" class="node">
<title>gio&#45;2.0</title>
<ellipse fill="none" stroke="black" cx="947.07" cy="-378" rx="27" ry="18"/>
<text text-anchor="middle" x="947.07" y="-376.4" font-family="Sans" font-size="8.00">gio&#45;2.0</text>
</g>
<!-- virtual:world&#45;&gt;gio&#45;2.0 -->
<g id="edge3" class="edge">
<title>virtual:world&#45;&gt;gio&#45;2.0</title>
<path fill="none" stroke="blue" d="M719.74,-440.21C768.58,-427.06 860.31,-402.36 911.04,-388.7"/>
<polygon fill="blue" stroke="blue" points="911.9,-392.09 920.65,-386.11 910.08,-385.33 911.9,-392.09"/>
</g>
<!-- glib&#45;2.0 -->
<g id="node5" class="node">
<title>glib&#45;2.0</title>
<ellipse fill="none" stroke="black" cx="1002.07" cy="-234" rx="27" ry="18"/>
<text text-anchor="middle" x="1002.07" y="-232.4" font-family="Sans" font-size="8.00">glib&#45;2.0</text>
</g>
<!-- virtual:world&#45;&gt;glib&#45;2.0 -->
<g id="edge4" class="edge">
<title>virtual:world&#45;&gt;glib&#45;2.0</title>
<path fill="none" stroke="blue" d="M724.25,-445.38C827.43,-434.46 1113.02,-397.93 1163.07,-324 1196.24,-275.01 1097.11,-250.32 1039.78,-240.41"/>
<polygon fill="blue" stroke="blue" points="1040.51,-236.98 1030.07,-238.82 1039.37,-243.89 1040.51,-236.98"/>
</g>
<!-- gobject&#45;2.0 -->
<g id="node6" class="node">
<title>gobject&#45;2.0</title>
<ellipse fill="none" stroke="black" cx="829.07" cy="-306" rx="34.88" ry="18"/>
<text text-anchor="middle" x="829.07" y="-304.4" font-family="Sans" font-size="8.00">gobject&#45;2.0</text>
</g>
<!-- virtual:world&#45;&gt;gobject&#45;2.0 -->
<g id="edge5" class="edge">
<title>virtual:world&#45;&gt;gobject&#45;2.0</title>
<path fill="none" stroke="blue" d="M711.55,-436.05C728.35,-426.42 750.51,-412.18 767.07,-396 786.05,-377.46 802.92,-352.36 814.26,-333.55"/>
<polygon fill="blue" stroke="blue" points="817.15,-335.53 819.19,-325.13 811.12,-331.98 817.15,-335.53"/>
</g>
<!-- fontconfig -->
<g id="node7" class="node">
<title>fontconfig</title>
<ellipse fill="none" stroke="black" cx="33.07" cy="-234" rx="33.07" ry="18"/>
<text text-anchor="middle" x="33.07" y="-232.4" font-family="Sans" font-size="8.00">fontconfig</text>
</g>
<!-- virtual:world&#45;&gt;fontconfig -->
<g id="edge6" class="edge">
<title>virtual:world&#45;&gt;fontconfig</title>
<path fill="none" stroke="blue" d="M649.17,-448.14C523.22,-444.96 124.09,-432.1 80.07,-396 40.83,-363.81 33.24,-300.82 32.39,-263.89"/>
<polygon fill="blue" stroke="blue" points="35.89,-263.95 32.33,-253.97 28.89,-263.99 35.89,-263.95"/>
</g>
<!-- freetype2 -->
<g id="node8" class="node">
<title>freetype2</title>
<ellipse fill="none" stroke="black" cx="132.07" cy="-162" rx="31.27" ry="18"/>
<text text-anchor="middle" x="132.07" y="-160.4" font-family="Sans" font-size="8.00">freetype2</text>
</g>
<!-- virtual:world&#45;&gt;freetype2 -->
<g id="edge7" class="edge">
<title>virtual:world&#45;&gt;freetype2</title>
<path fill="none" stroke="blue" d="M648.66,-449.19C543.97,-447.38 253.24,-426.21 130.07,-252 117.73,-234.55 119.31,-209.98 123.37,-191.07"/>
<polygon fill="blue" stroke="blue" points="126.7,-192.17 125.74,-181.62 119.91,-190.46 126.7,-192.17"/>
</g>
<!-- libpng -->
<g id="node9" class="node">
<title>libpng</title>
<ellipse fill="none" stroke="black" cx="637.07" cy="-90" rx="27" ry="18"/>
<text text-anchor="middle" x="637.07" y="-88.4" font-family="Sans" font-size="8.00">libpng</text>
</g>
<!-- virtual:world&#45;&gt;libpng -->
<g id="edge8" class="edge">
<title>virtual:world&#45;&gt;libpng</title>
<path fill="none" stroke="blue" d="M679.51,-432.03C666.9,-400.98 645.57,-333.99 673.07,-288 690.42,-258.99 722.73,-281.01 740.07,-252 748.28,-238.27 742.13,-231.87 740.07,-216 735.82,-183.18 740.65,-170.68 721.07,-144 708.2,-126.45 687.6,-113.32 670.02,-104.52"/>
<polygon fill="blue" stroke="blue" points="672.01,-101.59 661.47,-100.49 669.02,-107.92 672.01,-101.59"/>
</g>
<!-- poppler&#45;glib&#45;&gt;cairo -->
<g id="edge11" class="edge">
<title>poppler&#45;glib&#45;&gt;cairo</title>
<path fill="none" stroke="blue" d="M687.33,-368.42C637.1,-355.25 541.37,-330.15 489.19,-316.47"/>
<polygon fill="blue" stroke="blue" points="490.16,-313.1 479.6,-313.95 488.38,-319.88 490.16,-313.1"/>
</g>
<!-- poppler&#45;glib&#45;&gt;glib&#45;2.0 -->
<g id="edge9" class="edge">
<title>poppler&#45;glib&#45;&gt;glib&#45;2.0</title>
<path fill="none" stroke="blue" d="M727.82,-360.1C738.02,-339.79 757.88,-306.2 785.07,-288 839.92,-251.29 917.75,-239.97 963.76,-236.5"/>
<polygon fill="blue" stroke="blue" points="963.76,-240.01 973.51,-235.86 963.3,-233.02 963.76,-240.01"/>
</g>
<!-- poppler&#45;glib&#45;&gt;gobject&#45;2.0 -->
<g id="edge10" class="edge">
<title>poppler&#45;glib&#45;&gt;gobject&#45;2.0</title>
<path fill="none" stroke="blue" d="M742.13,-362.83C758.3,-352.45 780.45,-338.23 798.35,-326.73"/>
<polygon fill="blue" stroke="blue" points="799.99,-329.83 806.52,-321.49 796.21,-323.94 799.99,-329.83"/>
</g>
<!-- poppler -->
<g id="node10" class="node">
<title>poppler</title>
<ellipse fill="none" stroke="black" cx="710.07" cy="-306" rx="27.66" ry="18"/>
<text text-anchor="middle" x="710.07" y="-304.4" font-family="Sans" font-size="8.00">poppler</text>
</g>
<!-- poppler&#45;glib&#45;&gt;poppler -->
<g id="edge12" class="edge">
<title>poppler&#45;glib&#45;&gt;poppler</title>
<path fill="none" stroke="gray" d="M717.6,-359.7C716.55,-352.32 715.29,-343.52 714.11,-335.25"/>
<polygon fill="gray" stroke="gray" points="717.61,-335.01 712.73,-325.6 710.68,-336 717.61,-335.01"/>
</g>
<!-- cairo&#45;&gt;fontconfig -->
<g id="edge15" class="edge">
<title>cairo&#45;&gt;fontconfig</title>
<path fill="none" stroke="gray" d="M426.95,-301.24C370.47,-293.01 232.84,-272.55 118.07,-252 103.95,-249.47 88.57,-246.47 74.81,-243.7"/>
<polygon fill="gray" stroke="gray" points="75.68,-240.3 65.19,-241.74 74.29,-247.16 75.68,-240.3"/>
</g>
<!-- cairo&#45;&gt;freetype2 -->
<g id="edge16" class="edge">
<title>cairo&#45;&gt;freetype2</title>
<path fill="none" stroke="gray" d="M426.08,-304.01C359.55,-301.02 190.26,-289.78 151.07,-252 135.15,-236.65 130.96,-211.49 130.43,-191.82"/>
<polygon fill="gray" stroke="gray" points="133.93,-191.96 130.5,-181.94 126.93,-191.92 133.93,-191.96"/>
</g>
<!-- cairo&#45;&gt;libpng -->
<g id="edge14" class="edge">
<title>cairo&#45;&gt;libpng</title>
<path fill="none" stroke="gray" d="M480.22,-303.84C542.12,-300.56 690.74,-288.92 721.07,-252 757.85,-207.23 698.54,-143.78 662.15,-111.53"/>
<polygon fill="gray" stroke="gray" points="664.9,-109.28 655.04,-105.39 660.32,-114.58 664.9,-109.28"/>
</g>
<!-- zlib -->
<g id="node11" class="node">
<title>zlib</title>
<ellipse fill="none" stroke="black" cx="533.07" cy="-18" rx="27" ry="18"/>
<text text-anchor="middle" x="533.07" y="-16.4" font-family="Sans" font-size="8.00">zlib</text>
</g>
<!-- cairo&#45;&gt;zlib -->
<g id="edge13" class="edge">
<title>cairo&#45;&gt;zlib</title>
<path fill="none" stroke="gray" d="M427.32,-300.43C401.46,-294.31 362.97,-280.72 345.07,-252 336.61,-238.42 339.12,-230.85 345.07,-216 377.52,-135.01 460.88,-68.42 504.89,-37.55"/>
<polygon fill="gray" stroke="gray" points="506.66,-40.58 512.92,-32.02 502.69,-34.81 506.66,-40.58"/>
</g>
<!-- x11 -->
<g id="node12" class="node">
<title>x11</title>
<ellipse fill="none" stroke="black" cx="381.07" cy="-234" rx="27" ry="18"/>
<text text-anchor="middle" x="381.07" y="-232.4" font-family="Sans" font-size="8.00">x11</text>
</g>
<!-- cairo&#45;&gt;x11 -->
<g id="edge17" class="edge">
<title>cairo&#45;&gt;x11</title>
<path fill="none" stroke="gray" d="M438.16,-290.5C428.31,-280.92 415.21,-268.19 404.05,-257.34"/>
<polygon fill="gray" stroke="gray" points="406.67,-255 397.06,-250.54 401.79,-260.02 406.67,-255"/>
</g>
<!-- xext -->
<g id="node13" class="node">
<title>xext</title>
<ellipse fill="none" stroke="black" cx="453.07" cy="-234" rx="27" ry="18"/>
<text text-anchor="middle" x="453.07" y="-232.4" font-family="Sans" font-size="8.00">xext</text>
</g>
<!-- cairo&#45;&gt;xext -->
<g id="edge18" class="edge">
<title>cairo&#45;&gt;xext</title>
<path fill="none" stroke="gray" d="M453.07,-287.7C453.07,-280.41 453.07,-271.73 453.07,-263.54"/>
<polygon fill="gray" stroke="gray" points="456.57,-263.62 453.07,-253.62 449.57,-263.62 456.57,-263.62"/>
</g>
<!-- xrender -->
<g id="node14" class="node">
<title>xrender</title>
<ellipse fill="none" stroke="black" cx="526.07" cy="-234" rx="27.66" ry="18"/>
<text text-anchor="middle" x="526.07" y="-232.4" font-family="Sans" font-size="8.00">xrender</text>
</g>
<!-- cairo&#45;&gt;xrender -->
<g id="edge19" class="edge">
<title>cairo&#45;&gt;xrender</title>
<path fill="none" stroke="gray" d="M467.85,-290.83C477.87,-281.22 491.34,-268.31 502.79,-257.32"/>
<polygon fill="gray" stroke="gray" points="505.18,-259.88 509.98,-250.43 500.34,-254.83 505.18,-259.88"/>
</g>
<!-- xcb -->
<g id="node15" class="node">
<title>xcb</title>
<ellipse fill="none" stroke="black" cx="599.07" cy="-234" rx="27" ry="18"/>
<text text-anchor="middle" x="599.07" y="-232.4" font-family="Sans" font-size="8.00">xcb</text>
</g>
<!-- cairo&#45;&gt;xcb -->
<g id="edge20" class="edge">
<title>cairo&#45;&gt;xcb</title>
<path fill="none" stroke="gray" d="M474.62,-294.67C499.09,-282.94 539.27,-263.67 567.34,-250.22"/>
<polygon fill="gray" stroke="gray" points="568.57,-253.5 576.08,-246.03 565.55,-247.19 568.57,-253.5"/>
</g>
<!-- xcb&#45;render -->
<g id="node16" class="node">
<title>xcb&#45;render</title>
<ellipse fill="none" stroke="black" cx="678.07" cy="-234" rx="33.98" ry="18"/>
<text text-anchor="middle" x="678.07" y="-232.4" font-family="Sans" font-size="8.00">xcb&#45;render</text>
</g>
<!-- cairo&#45;&gt;xcb&#45;render -->
<g id="edge21" class="edge">
<title>cairo&#45;&gt;xcb&#45;render</title>
<path fill="none" stroke="gray" d="M478.03,-298.52C513.31,-289.19 579.65,-270.98 635.07,-252 637.04,-251.33 639.05,-250.62 641.07,-249.88"/>
<polygon fill="gray" stroke="gray" points="642.3,-253.16 650.42,-246.35 639.83,-246.61 642.3,-253.16"/>
</g>
<!-- xcb&#45;shm -->
<g id="node17" class="node">
<title>xcb&#45;shm</title>
<ellipse fill="none" stroke="black" cx="189.07" cy="-234" rx="28.56" ry="18"/>
<text text-anchor="middle" x="189.07" y="-232.4" font-family="Sans" font-size="8.00">xcb&#45;shm</text>
</g>
<!-- cairo&#45;&gt;xcb&#45;shm -->
<g id="edge22" class="edge">
<title>cairo&#45;&gt;xcb&#45;shm</title>
<path fill="none" stroke="gray" d="M426.87,-300.53C384.28,-292.9 297.71,-275.84 227.07,-252 225.28,-251.4 223.46,-250.74 221.64,-250.04"/>
<polygon fill="gray" stroke="gray" points="223.28,-246.93 212.7,-246.37 220.61,-253.41 223.28,-246.93"/>
</g>
<!-- pixman&#45;1 -->
<g id="node18" class="node">
<title>pixman&#45;1</title>
<ellipse fill="none" stroke="black" cx="267.07" cy="-234" rx="31.27" ry="18"/>
<text text-anchor="middle" x="267.07" y="-232.4" font-family="Sans" font-size="8.00">pixman&#45;1</text>
</g>
<!-- cairo&#45;&gt;pixman&#45;1 -->
<g id="edge23" class="edge">
<title>cairo&#45;&gt;pixman&#45;1</title>
<path fill="none" stroke="gray" d="M430.11,-296.38C402.2,-285.9 353.68,-267.68 312.07,-252 309.24,-250.93 306.31,-249.83 303.36,-248.71"/>
<polygon fill="gray" stroke="gray" points="304.78,-245.51 294.19,-245.25 302.31,-252.06 304.78,-245.51"/>
</g>
<!-- gio&#45;2.0&#45;&gt;glib&#45;2.0 -->
<g id="edge24" class="edge">
<title>gio&#45;2.0&#45;&gt;glib&#45;2.0</title>
<path fill="none" stroke="blue" d="M959.82,-361.7C967.63,-351.59 977.22,-337.71 983.07,-324 991.33,-304.66 996.14,-281.38 998.85,-263.48"/>
<polygon fill="blue" stroke="blue" points="1002.28,-264.21 1000.17,-253.83 995.35,-263.26 1002.28,-264.21"/>
</g>
<!-- gio&#45;2.0&#45;&gt;gobject&#45;2.0 -->
<g id="edge25" class="edge">
<title>gio&#45;2.0&#45;&gt;gobject&#45;2.0</title>
<path fill="none" stroke="blue" d="M927.32,-365.28C909.28,-354.58 882.28,-338.56 861.14,-326.02"/>
<polygon fill="blue" stroke="blue" points="862.99,-323.05 852.6,-320.96 859.42,-329.07 862.99,-323.05"/>
</g>
<!-- gio&#45;2.0&#45;&gt;zlib -->
<g id="edge27" class="edge">
<title>gio&#45;2.0&#45;&gt;zlib</title>
<path fill="none" stroke="gray" d="M934.33,-361.7C926.52,-351.59 916.93,-337.71 911.07,-324 895.19,-286.8 892.07,-275.45 892.07,-235 892.07,-235 892.07,-235 892.07,-161 892.07,-92.38 662.37,-42.68 570.44,-25.54"/>
<polygon fill="gray" stroke="gray" points="571.14,-22.11 560.67,-23.75 569.87,-28.99 571.14,-22.11"/>
</g>
<!-- gmodule&#45;no&#45;export&#45;2.0 -->
<g id="node19" class="node">
<title>gmodule&#45;no&#45;export&#45;2.0</title>
<ellipse fill="none" stroke="black" cx="1092.07" cy="-306" rx="61.94" ry="18"/>
<text text-anchor="middle" x="1092.07" y="-304.4" font-family="Sans" font-size="8.00">gmodule&#45;no&#45;export&#45;2.0</text>
</g>
<!-- gio&#45;2.0&#45;&gt;gmodule&#45;no&#45;export&#45;2.0 -->
<g id="edge26" class="edge">
<title>gio&#45;2.0&#45;&gt;gmodule&#45;no&#45;export&#45;2.0</title>
<path fill="none" stroke="gray" d="M968.47,-366.67C990.03,-356.26 1023.85,-339.93 1050.67,-326.99"/>
<polygon fill="gray" stroke="gray" points="1052.09,-330.19 1059.58,-322.69 1049.05,-323.88 1052.09,-330.19"/>
</g>
<!-- mount -->
<g id="node20" class="node">
<title>mount</title>
<ellipse fill="none" stroke="black" cx="947.07" cy="-306" rx="27" ry="18"/>
<text text-anchor="middle" x="947.07" y="-304.4" font-family="Sans" font-size="8.00">mount</text>
</g>
<!-- gio&#45;2.0&#45;&gt;mount -->
<g id="edge28" class="edge">
<title>gio&#45;2.0&#45;&gt;mount</title>
<path fill="none" stroke="gray" d="M947.07,-359.7C947.07,-352.41 947.07,-343.73 947.07,-335.54"/>
<polygon fill="gray" stroke="gray" points="950.57,-335.62 947.07,-325.62 943.57,-335.62 950.57,-335.62"/>
</g>
<!-- sysprof&#45;capture&#45;4 -->
<g id="node21" class="node">
<title>sysprof&#45;capture&#45;4</title>
<ellipse fill="none" stroke="black" cx="1141.07" cy="-162" rx="48.86" ry="18"/>
<text text-anchor="middle" x="1141.07" y="-160.4" font-family="Sans" font-size="8.00">sysprof&#45;capture&#45;4</text>
</g>
<!-- gio&#45;2.0&#45;&gt;sysprof&#45;capture&#45;4 -->
<g id="edge29" class="edge">
<title>gio&#45;2.0&#45;&gt;sysprof&#45;capture&#45;4</title>
<path fill="none" stroke="gray" d="M973.66,-374.49C1026.09,-368.95 1139.78,-353.7 1163.07,-324 1193.52,-285.17 1172.1,-224.25 1155.46,-189.54"/>
<polygon fill="gray" stroke="gray" points="1158.8,-188.4 1151.2,-181.02 1152.55,-191.53 1158.8,-188.4"/>
</g>
<!-- glib&#45;2.0&#45;&gt;sysprof&#45;capture&#45;4 -->
<g id="edge30" class="edge">
<title>glib&#45;2.0&#45;&gt;sysprof&#45;capture&#45;4</title>
<path fill="none" stroke="gray" d="M1023.18,-222.37C1044.28,-211.75 1077.18,-195.18 1102.87,-182.24"/>
<polygon fill="gray" stroke="gray" points="1104.31,-185.43 1111.67,-177.81 1101.17,-179.18 1104.31,-185.43"/>
</g>
<!-- libpcre2&#45;8 -->
<g id="node22" class="node">
<title>libpcre2&#45;8</title>
<ellipse fill="none" stroke="black" cx="1002.07" cy="-162" rx="32.17" ry="18"/>
<text text-anchor="middle" x="1002.07" y="-160.4" font-family="Sans" font-size="8.00">libpcre2&#45;8</text>
</g>
<!-- glib&#45;2.0&#45;&gt;libpcre2&#45;8 -->
<g id="edge31" class="edge">
<title>glib&#45;2.0&#45;&gt;libpcre2&#45;8</title>
<path fill="none" stroke="gray" d="M1002.07,-215.7C1002.07,-208.41 1002.07,-199.73 1002.07,-191.54"/>
<polygon fill="gray" stroke="gray" points="1005.57,-191.62 1002.07,-181.62 998.57,-191.62 1005.57,-191.62"/>
</g>
<!-- gobject&#45;2.0&#45;&gt;glib&#45;2.0 -->
<g id="edge32" class="edge">
<title>gobject&#45;2.0&#45;&gt;glib&#45;2.0</title>
<path fill="none" stroke="blue" d="M855.73,-294.22C886.13,-281.92 935.87,-261.79 968.79,-248.47"/>
<polygon fill="blue" stroke="blue" points="969.9,-251.79 977.86,-244.8 967.27,-245.3 969.9,-251.79"/>
</g>
<!-- libffi -->
<g id="node23" class="node">
<title>libffi</title>
<ellipse fill="none" stroke="black" cx="833.07" cy="-234" rx="27" ry="18"/>
<text text-anchor="middle" x="833.07" y="-232.4" font-family="Sans" font-size="8.00">libffi</text>
</g>
<!-- gobject&#45;2.0&#45;&gt;libffi -->
<g id="edge33" class="edge">
<title>gobject&#45;2.0&#45;&gt;libffi</title>
<path fill="none" stroke="gray" d="M830.06,-287.7C830.48,-280.41 830.97,-271.73 831.44,-263.54"/>
<polygon fill="gray" stroke="gray" points="834.93,-263.8 832.01,-253.62 827.94,-263.4 834.93,-263.8"/>
</g>
<!-- fontconfig&#45;&gt;freetype2 -->
<g id="edge34" class="edge">
<title>fontconfig&#45;&gt;freetype2</title>
<path fill="none" stroke="blue" d="M52.63,-219.17C67.24,-208.85 87.41,-194.58 103.77,-183.01"/>
<polygon fill="blue" stroke="blue" points="105.51,-186.07 111.66,-177.44 101.47,-180.35 105.51,-186.07"/>
</g>
<!-- expat -->
<g id="node24" class="node">
<title>expat</title>
<ellipse fill="none" stroke="black" cx="33.07" cy="-162" rx="27" ry="18"/>
<text text-anchor="middle" x="33.07" y="-160.4" font-family="Sans" font-size="8.00">expat</text>
</g>
<!-- fontconfig&#45;&gt;expat -->
<g id="edge35" class="edge">
<title>fontconfig&#45;&gt;expat</title>
<path fill="none" stroke="gray" d="M33.07,-215.7C33.07,-208.41 33.07,-199.73 33.07,-191.54"/>
<polygon fill="gray" stroke="gray" points="36.57,-191.62 33.07,-181.62 29.57,-191.62 36.57,-191.62"/>
</g>
<!-- freetype2&#45;&gt;libpng -->
<g id="edge37" class="edge">
<title>freetype2&#45;&gt;libpng</title>
<path fill="none" stroke="gray" d="M162.53,-156.78C250.24,-144.62 503.32,-109.54 599.43,-96.22"/>
<polygon fill="gray" stroke="gray" points="599.69,-99.72 609.12,-94.88 598.73,-92.78 599.69,-99.72"/>
</g>
<!-- freetype2&#45;&gt;zlib -->
<g id="edge36" class="edge">
<title>freetype2&#45;&gt;zlib</title>
<path fill="none" stroke="gray" d="M153.54,-148.4C186.61,-129.47 252.41,-93.59 312.07,-72 374.91,-49.26 451.33,-33.41 495.86,-25.29"/>
<polygon fill="gray" stroke="gray" points="496.29,-28.77 505.51,-23.56 495.05,-21.88 496.29,-28.77"/>
</g>
<!-- harfbuzz -->
<g id="node25" class="node">
<title>harfbuzz</title>
<ellipse fill="none" stroke="black" cx="71.07" cy="-90" rx="29.92" ry="18"/>
<text text-anchor="middle" x="71.07" y="-88.4" font-family="Sans" font-size="8.00">harfbuzz</text>
</g>
<!-- freetype2&#45;&gt;harfbuzz -->
<g id="edge38" class="edge">
<title>freetype2&#45;&gt;harfbuzz</title>
<path fill="none" stroke="gray" d="M118.54,-145.46C110.72,-136.49 100.72,-125.02 91.92,-114.92"/>
<polygon fill="gray" stroke="gray" points="94.78,-112.87 85.57,-107.63 89.5,-117.47 94.78,-112.87"/>
</g>
<!-- libbrotlidec -->
<g id="node26" class="node">
<title>libbrotlidec</title>
<ellipse fill="none" stroke="black" cx="155.07" cy="-90" rx="35.78" ry="18"/>
<text text-anchor="middle" x="155.07" y="-88.4" font-family="Sans" font-size="8.00">libbrotlidec</text>
</g>
<!-- freetype2&#45;&gt;libbrotlidec -->
<g id="edge39" class="edge">
<title>freetype2&#45;&gt;libbrotlidec</title>
<path fill="none" stroke="gray" d="M137.64,-144.05C140.16,-136.4 143.19,-127.16 146.02,-118.56"/>
<polygon fill="gray" stroke="gray" points="149.29,-119.82 149.08,-109.23 142.64,-117.63 149.29,-119.82"/>
</g>
<!-- libpng&#45;&gt;zlib -->
<g id="edge40" class="edge">
<title>libpng&#45;&gt;zlib</title>
<path fill="none" stroke="gray" d="M618.48,-76.49C602.51,-65.73 579.24,-50.08 561.03,-37.82"/>
<polygon fill="gray" stroke="gray" points="563.01,-34.93 552.76,-32.25 559.1,-40.74 563.01,-34.93"/>
</g>
</g>
</svg>
